<svg xmlns="http://www.w3.org/2000/svg" width="102" height="102" viewBox="0 0 102 102">
    <path fill="none" fill-rule="nonzero" stroke="#FFF" d="M95.596 95.14V43.514H78.54v11.035h5.664v8.334H78.54v32.259h-5.86V24.19l-8.333-4.167V10.57H53.93V1h-5.86v9.57H37.654v9.452L29.32 24.19v70.95h-5.86V73.136h-5.663v-8.333h5.664v-8.333h-5.664v-8.334h5.664V33.487H6.404V95.14H1V101h100v-5.86h-5.404zM47.68 62.882h-5.86v-8.333h5.86v8.333zm0-25v8.334h-5.86v-8.333h5.86zm-5.86 33.334h5.86v8.333h-5.86v-8.333zm18.36 8.333h-5.86v-8.333h5.86v8.333zm-5.86-16.667v-8.333h5.86v8.333h-5.86zm5.86-16.666h-5.86v-8.333h5.86v8.333zM78.54 23.07h6.64v14.584h-6.64V23.07z"/>
</svg>
