<?xml version="1.0" encoding="UTF-8"?>
<svg width="20px" height="20px" viewBox="0 0 20 20" version="1.1" xmlns="http://www.w3.org/2000/svg" xmlns:xlink="http://www.w3.org/1999/xlink">
    <!-- Generator: Sketch 54.1 (76490) - https://sketchapp.com -->
    <title>Categories</title>
    <desc>Created with Sketch.</desc>
    <g id="Events" stroke="none" stroke-width="1" fill="none" fill-rule="evenodd">
        <g id="2.0.0_events" transform="translate(-390.000000, -521.000000)">
            <rect fill="#FFFFFF" x="0" y="0" width="1440" height="1820"></rect>
            <g id="编组" transform="translate(160.000000, 509.000000)">
                <g id="filter" transform="translate(220.000000, 0.000000)">
                    <rect id="矩形" stroke="#E8E8E8" stroke-width="1" fill="#FFFFFF" fill-rule="evenodd" x="0.5" y="0.5" width="199" height="43" rx="2"></rect>
                    <text id="location" font-family="PingFangSC-Regular, PingFang SC" font-size="16" font-weight="normal" fill="#666666">
                        <tspan x="40" y="28">Categories</tspan>
                    </text>
                    <g id="filter_categories" transform="translate(10.000000, 12.000000)" fill="#E9001B" fill-rule="evenodd" stroke-width="1">
                        <g id="Categories" transform="translate(1.000000, 2.000000)">
                            <path d="M1.5,0.5 L15.5,0.5 C15.7761424,0.5 16,0.723857625 16,1 L16,2.5 C16,2.77614237 15.7761424,3 15.5,3 L1.5,3 C1.22385763,3 1,2.77614237 1,2.5 L1,1 C1,0.723857625 1.22385763,0.5 1.5,0.5 Z M6.5,7 L17.5,7 C17.7761424,7 18,7.22385763 18,7.5 L18,9 C18,9.27614237 17.7761424,9.5 17.5,9.5 L6.5,9.5 C6.22385763,9.5 6,9.27614237 6,9 L6,7.5 C6,7.22385763 6.22385763,7 6.5,7 Z M1.5,13.5 L11.5,13.5 C11.7761424,13.5 12,13.7238576 12,14 L12,15.5 C12,15.7761424 11.7761424,16 11.5,16 L1.5,16 C1.22385763,16 1,15.7761424 1,15.5 L1,14 C1,13.7238576 1.22385763,13.5 1.5,13.5 Z" id="形状结合"></path>
                        </g>
                    </g>
                    <path d="M184.5,22.7928932 L184.5,16.2928932 C184.5,16.0167508 184.723858,15.7928932 185,15.7928932 C185.276142,15.7928932 185.5,16.0167508 185.5,16.2928932 L185.5,23.2928932 C185.5,23.5690356 185.276142,23.7928932 185,23.7928932 L178,23.7928932 C177.723858,23.7928932 177.5,23.5690356 177.5,23.2928932 C177.5,23.0167508 177.723858,22.7928932 178,22.7928932 L184.5,22.7928932 Z" id="形状结合" fill="#E9001B" fill-rule="evenodd" transform="translate(181.500000, 19.792893) rotate(45.000000) translate(-181.500000, -19.792893) "></path>
                </g>
                <g id="filter" transform="translate(220.000000, 0.000000)">
                    <rect id="矩形" stroke="#E8E8E8" fill="#FFFFFF" x="0.5" y="0.5" width="199" height="43" rx="2"></rect>
                    <g id="filter_categories" transform="translate(10.000000, 12.000000)" fill="#E9001B">
                        <g id="Categories" transform="translate(1.000000, 2.000000)">
                            <path d="M1.5,0.5 L15.5,0.5 C15.7761424,0.5 16,0.723857625 16,1 L16,2.5 C16,2.77614237 15.7761424,3 15.5,3 L1.5,3 C1.22385763,3 1,2.77614237 1,2.5 L1,1 C1,0.723857625 1.22385763,0.5 1.5,0.5 Z M6.5,7 L17.5,7 C17.7761424,7 18,7.22385763 18,7.5 L18,9 C18,9.27614237 17.7761424,9.5 17.5,9.5 L6.5,9.5 C6.22385763,9.5 6,9.27614237 6,9 L6,7.5 C6,7.22385763 6.22385763,7 6.5,7 Z M1.5,13.5 L11.5,13.5 C11.7761424,13.5 12,13.7238576 12,14 L12,15.5 C12,15.7761424 11.7761424,16 11.5,16 L1.5,16 C1.22385763,16 1,15.7761424 1,15.5 L1,14 C1,13.7238576 1.22385763,13.5 1.5,13.5 Z" id="形状结合"></path>
                        </g>
                    </g>
                    <g id="location" transform="translate(10.000000, 12.000000)" fill="#E9001B">
                        <g id="Categories" transform="translate(1.000000, 2.000000)">
                            <path d="M1.5,0.5 L15.5,0.5 C15.7761424,0.5 16,0.723857625 16,1 L16,2.5 C16,2.77614237 15.7761424,3 15.5,3 L1.5,3 C1.22385763,3 1,2.77614237 1,2.5 L1,1 C1,0.723857625 1.22385763,0.5 1.5,0.5 Z M6.5,7 L17.5,7 C17.7761424,7 18,7.22385763 18,7.5 L18,9 C18,9.27614237 17.7761424,9.5 17.5,9.5 L6.5,9.5 C6.22385763,9.5 6,9.27614237 6,9 L6,7.5 C6,7.22385763 6.22385763,7 6.5,7 Z M1.5,13.5 L11.5,13.5 C11.7761424,13.5 12,13.7238576 12,14 L12,15.5 C12,15.7761424 11.7761424,16 11.5,16 L1.5,16 C1.22385763,16 1,15.7761424 1,15.5 L1,14 C1,13.7238576 1.22385763,13.5 1.5,13.5 Z" id="形状结合"></path>
                        </g>
                    </g>
                </g>
            </g>
        </g>
    </g>
</svg>