<svg xmlns="http://www.w3.org/2000/svg" xmlns:xlink="http://www.w3.org/1999/xlink" width="40" height="40" viewBox="0 0 40 40">
    <defs>
        <linearGradient id="c" x1="0%" y1="15.278%" y2="84.722%">
            <stop offset="0%" stop-color="#0ED9C8"/>
            <stop offset="100%" stop-color="#3DAAA6"/>
        </linearGradient>
        <path id="b" d="M30.032 23.218a1.166 1.166 0 0 1 1.577-.032l.077.08c.822.861.81 2.25-.027 3.097l-3.953 3.994c-.416.42-.97.65-1.557.643a2.144 2.144 0 0 1-1.541-.671 1.22 1.22 0 0 1 .063-1.707 1.173 1.173 0 0 1 1.566-.041l.515.507.991-1.007-.46-.457a1.221 1.221 0 0 1 .064-1.706 1.172 1.172 0 0 1 1.589-.022l.42.483 1.066-.927-.45-.523a1.22 1.22 0 0 1 .06-1.71zm-8.112-7.257l-6.42 6.415-3.5-3.5L19.878 11l6.629 6.628c.195.195.302.454.302.73a1.033 1.033 0 0 1-1.762.73L21.92 15.96zM36 18.876l-3.359 3.346-.03-.032-.036-.036a2.581 2.581 0 0 0-3.51.036 2.624 2.624 0 0 0-.823 1.994 2.579 2.579 0 0 0-1.863.705 2.624 2.624 0 0 0-.822 2 2.58 2.58 0 0 0-1.855.705 2.639 2.639 0 0 0-.407 3.335 4.415 4.415 0 0 1-.584.055 2.236 2.236 0 0 1-1.567-.715 2.243 2.243 0 0 1-.603-1.468 2.244 2.244 0 0 1-1.58-.714 2.245 2.245 0 0 1-.605-1.477 2.244 2.244 0 0 1-1.575-.714 2.237 2.237 0 0 1-.454-2.349l5.593-5.59 2.129 2.129a2.448 2.448 0 0 0 3.457 0 2.447 2.447 0 0 0 0-3.457l-2.138-2.137 3.124-3.122L36 18.876z"/>
        <filter id="a" width="250%" height="280%" x="-75%" y="-60%" filterUnits="objectBoundingBox">
            <feOffset dy="6" in="SourceAlpha" result="shadowOffsetOuter1"/>
            <feGaussianBlur in="shadowOffsetOuter1" result="shadowBlurOuter1" stdDeviation="5"/>
            <feColorMatrix in="shadowBlurOuter1" values="0 0 0 0 0.0156862745 0 0 0 0 0.705882353 0 0 0 0 0.678431373 0 0 0 0.2 0"/>
        </filter>
    </defs>
    <g fill="none" fill-rule="evenodd" transform="translate(-4)">
        <circle cx="24" cy="20" r="20" fill="#208985" fill-opacity=".05"/>
        <use fill="#000" filter="url(#a)" xlink:href="#b"/>
        <use fill="url(#c)" xlink:href="#b"/>
    </g>
</svg>
