<svg xmlns="http://www.w3.org/2000/svg" xmlns:xlink="http://www.w3.org/1999/xlink" width="40" height="40" viewBox="0 0 40 40">
    <defs>
        <linearGradient id="c" x1="0%" y1="0%" y2="100%">
            <stop offset="0%" stop-color="#0ED9C8"/>
            <stop offset="100%" stop-color="#3DAAA6"/>
        </linearGradient>
        <path id="b" d="M33.59 27.884c-.259.569-.843 1.064-1.752 1.485-.91.42-1.717.631-2.422.631-.198 0-.408-.015-.631-.046a10.039 10.039 0 0 1-.566-.093 6.05 6.05 0 0 1-.612-.167 9.912 9.912 0 0 1-.547-.186 75.258 75.258 0 0 0-1.169-.435c-2.028-.743-4.01-2.082-5.947-4.018-1.935-1.936-3.274-3.918-4.017-5.947a61.912 61.912 0 0 0-.436-1.169 10.582 10.582 0 0 1-.352-1.159 9.78 9.78 0 0 1-.093-.566 4.6 4.6 0 0 1-.046-.63c0-.706.21-1.513.631-2.422.42-.91.915-1.494 1.484-1.754.656-.272 1.28-.408 1.874-.408.136 0 .235.012.297.037.062.025.164.136.306.334.143.198.297.449.464.752.167.303.331.597.492.881a39.078 39.078 0 0 1 .742 1.373c.037.062.118.18.241.353.124.173.217.327.279.464a.944.944 0 0 1 .092.39c0 .185-.127.41-.38.676a6.33 6.33 0 0 1-.835.734c-.303.222-.582.46-.835.714-.253.254-.38.46-.38.622 0 .086.021.188.065.306a2.87 2.87 0 0 0 .296.603c.08.136.134.223.158.26.68 1.225 1.463 2.28 2.347 3.164.885.885 1.939 1.667 3.164 2.347.037.025.123.078.26.158a2.823 2.823 0 0 0 .603.296c.118.044.22.065.307.065.197 0 .47-.204.816-.612.346-.408.699-.813 1.058-1.215.358-.402.648-.603.872-.603.123 0 .253.03.39.092.136.062.29.155.463.279.173.124.29.204.353.242l.983.537c.655.347 1.203.653 1.642.919.439.266.677.448.714.547a.87.87 0 0 1 .037.297c0 .593-.137 1.218-.41 1.872z"/>
        <filter id="a" width="289.5%" height="289.5%" x="-94.7%" y="-63.2%" filterUnits="objectBoundingBox">
            <feOffset dy="6" in="SourceAlpha" result="shadowOffsetOuter1"/>
            <feGaussianBlur in="shadowOffsetOuter1" result="shadowBlurOuter1" stdDeviation="5"/>
            <feColorMatrix in="shadowBlurOuter1" values="0 0 0 0 0.0156862745 0 0 0 0 0.705882353 0 0 0 0 0.678431373 0 0 0 0.2 0"/>
        </filter>
    </defs>
    <g fill="none" fill-rule="evenodd" transform="translate(-4)">
        <circle cx="24" cy="20" r="20" fill="#208985" fill-opacity=".05"/>
        <use fill="#000" filter="url(#a)" xlink:href="#b"/>
        <use fill="url(#c)" xlink:href="#b"/>
    </g>
</svg>
