<?xml version="1.0" encoding="UTF-8"?>
<svg width="20px" height="20px" viewBox="0 0 20 20" version="1.1" xmlns="http://www.w3.org/2000/svg" xmlns:xlink="http://www.w3.org/1999/xlink">
    <!-- Generator: Sketch 54.1 (76490) - https://sketchapp.com -->
    <title>编组</title>
    <desc>Created with Sketch.</desc>
    <g id="Events" stroke="none" stroke-width="1" fill="none" fill-rule="evenodd">
        <g id="2.0.0_events" transform="translate(-610.000000, -521.000000)">
            <rect fill="#FFFFFF" x="0" y="0" width="1440" height="1820"></rect>
            <g id="编组" transform="translate(160.000000, 509.000000)">
                <g id="filter" transform="translate(440.000000, 0.000000)">
                    <rect id="矩形" stroke="#E8E8E8" stroke-width="1" fill="#FFFFFF" fill-rule="evenodd" x="0.5" y="0.5" width="199" height="43" rx="2"></rect>
                    <text id="location" font-family="PingFangSC-Regular, PingFang SC" font-size="16" font-weight="normal" fill="#666666">
                        <tspan x="40" y="28">Open Date</tspan>
                    </text>
                    <g id="filter_date" transform="translate(10.000000, 12.000000)" fill="#E9001B" fill-rule="evenodd" stroke-width="1">
                        <g id="编组">
                            <path d="M17,2 L19.5,2 C19.7761424,2 20,2.22385763 20,2.5 L20,19.5 C20,19.7761424 19.7761424,20 19.5,20 L0.5,20 C0.223857625,20 3.38176876e-17,19.7761424 0,19.5 L0,2.5 C-3.38176876e-17,2.22385763 0.223857625,2 0.5,2 L3,2 L3,3 C3,4.1045695 3.8954305,5 5,5 C6.1045695,5 7,4.1045695 7,3 L7,2 L13,2 L13,3 C13,4.1045695 13.8954305,5 15,5 C16.1045695,5 17,4.1045695 17,3 L17,2 Z M2.72222222,6.5 C2.44607985,6.5 2.22222222,6.72385763 2.22222222,7 L2.22222222,17.25 C2.22222222,17.5261424 2.44607985,17.75 2.72222222,17.75 L17.2777778,17.75 C17.5539202,17.75 17.7777778,17.5261424 17.7777778,17.25 L17.7777778,7 C17.7777778,6.72385763 17.5539202,6.5 17.2777778,6.5 L2.72222222,6.5 Z M5.5,9 L6.5,9 C6.77614237,9 7,9.22385763 7,9.5 L7,10.5 C7,10.7761424 6.77614237,11 6.5,11 L5.5,11 C5.22385763,11 5,10.7761424 5,10.5 L5,9.5 C5,9.22385763 5.22385763,9 5.5,9 Z M9.5,9 L10.5,9 C10.7761424,9 11,9.22385763 11,9.5 L11,10.5 C11,10.7761424 10.7761424,11 10.5,11 L9.5,11 C9.22385763,11 9,10.7761424 9,10.5 L9,9.5 C9,9.22385763 9.22385763,9 9.5,9 Z M13.5,9 L14.5,9 C14.7761424,9 15,9.22385763 15,9.5 L15,10.5 C15,10.7761424 14.7761424,11 14.5,11 L13.5,11 C13.2238576,11 13,10.7761424 13,10.5 L13,9.5 C13,9.22385763 13.2238576,9 13.5,9 Z M5.5,13 L6.5,13 C6.77614237,13 7,13.2238576 7,13.5 L7,14.5 C7,14.7761424 6.77614237,15 6.5,15 L5.5,15 C5.22385763,15 5,14.7761424 5,14.5 L5,13.5 C5,13.2238576 5.22385763,13 5.5,13 Z M9.5,13 L10.5,13 C10.7761424,13 11,13.2238576 11,13.5 L11,14.5 C11,14.7761424 10.7761424,15 10.5,15 L9.5,15 C9.22385763,15 9,14.7761424 9,14.5 L9,13.5 C9,13.2238576 9.22385763,13 9.5,13 Z M13.5,13 L14.5,13 C14.7761424,13 15,13.2238576 15,13.5 L15,14.5 C15,14.7761424 14.7761424,15 14.5,15 L13.5,15 C13.2238576,15 13,14.7761424 13,14.5 L13,13.5 C13,13.2238576 13.2238576,13 13.5,13 Z M5,0 C5.55228475,-1.01453063e-16 6,0.44771525 6,1 L6,3 C6,3.55228475 5.55228475,4 5,4 C4.44771525,4 4,3.55228475 4,3 L4,1 C4,0.44771525 4.44771525,1.01453063e-16 5,0 Z M15,0 C15.5522847,-1.01453063e-16 16,0.44771525 16,1 L16,3 C16,3.55228475 15.5522847,4 15,4 C14.4477153,4 14,3.55228475 14,3 L14,1 C14,0.44771525 14.4477153,1.01453063e-16 15,0 Z" id="形状结合"></path>
                        </g>
                    </g>
                    <path d="M184.5,22.7928932 L184.5,16.2928932 C184.5,16.0167508 184.723858,15.7928932 185,15.7928932 C185.276142,15.7928932 185.5,16.0167508 185.5,16.2928932 L185.5,23.2928932 C185.5,23.5690356 185.276142,23.7928932 185,23.7928932 L178,23.7928932 C177.723858,23.7928932 177.5,23.5690356 177.5,23.2928932 C177.5,23.0167508 177.723858,22.7928932 178,22.7928932 L184.5,22.7928932 Z" id="形状结合" fill="#E9001B" fill-rule="evenodd" transform="translate(181.500000, 19.792893) rotate(45.000000) translate(-181.500000, -19.792893) "></path>
                </g>
                <g id="filter" transform="translate(440.000000, 0.000000)">
                    <rect id="矩形" stroke="#E8E8E8" fill="#FFFFFF" x="0.5" y="0.5" width="199" height="43" rx="2"></rect>
                    <g id="filter_date" transform="translate(10.000000, 12.000000)" fill="#E9001B">
                        <g id="编组">
                            <path d="M17,2 L19.5,2 C19.7761424,2 20,2.22385763 20,2.5 L20,19.5 C20,19.7761424 19.7761424,20 19.5,20 L0.5,20 C0.223857625,20 3.38176876e-17,19.7761424 0,19.5 L0,2.5 C-3.38176876e-17,2.22385763 0.223857625,2 0.5,2 L3,2 L3,3 C3,4.1045695 3.8954305,5 5,5 C6.1045695,5 7,4.1045695 7,3 L7,2 L13,2 L13,3 C13,4.1045695 13.8954305,5 15,5 C16.1045695,5 17,4.1045695 17,3 L17,2 Z M2.72222222,6.5 C2.44607985,6.5 2.22222222,6.72385763 2.22222222,7 L2.22222222,17.25 C2.22222222,17.5261424 2.44607985,17.75 2.72222222,17.75 L17.2777778,17.75 C17.5539202,17.75 17.7777778,17.5261424 17.7777778,17.25 L17.7777778,7 C17.7777778,6.72385763 17.5539202,6.5 17.2777778,6.5 L2.72222222,6.5 Z M5.5,9 L6.5,9 C6.77614237,9 7,9.22385763 7,9.5 L7,10.5 C7,10.7761424 6.77614237,11 6.5,11 L5.5,11 C5.22385763,11 5,10.7761424 5,10.5 L5,9.5 C5,9.22385763 5.22385763,9 5.5,9 Z M9.5,9 L10.5,9 C10.7761424,9 11,9.22385763 11,9.5 L11,10.5 C11,10.7761424 10.7761424,11 10.5,11 L9.5,11 C9.22385763,11 9,10.7761424 9,10.5 L9,9.5 C9,9.22385763 9.22385763,9 9.5,9 Z M13.5,9 L14.5,9 C14.7761424,9 15,9.22385763 15,9.5 L15,10.5 C15,10.7761424 14.7761424,11 14.5,11 L13.5,11 C13.2238576,11 13,10.7761424 13,10.5 L13,9.5 C13,9.22385763 13.2238576,9 13.5,9 Z M5.5,13 L6.5,13 C6.77614237,13 7,13.2238576 7,13.5 L7,14.5 C7,14.7761424 6.77614237,15 6.5,15 L5.5,15 C5.22385763,15 5,14.7761424 5,14.5 L5,13.5 C5,13.2238576 5.22385763,13 5.5,13 Z M9.5,13 L10.5,13 C10.7761424,13 11,13.2238576 11,13.5 L11,14.5 C11,14.7761424 10.7761424,15 10.5,15 L9.5,15 C9.22385763,15 9,14.7761424 9,14.5 L9,13.5 C9,13.2238576 9.22385763,13 9.5,13 Z M13.5,13 L14.5,13 C14.7761424,13 15,13.2238576 15,13.5 L15,14.5 C15,14.7761424 14.7761424,15 14.5,15 L13.5,15 C13.2238576,15 13,14.7761424 13,14.5 L13,13.5 C13,13.2238576 13.2238576,13 13.5,13 Z M5,0 C5.55228475,-1.01453063e-16 6,0.44771525 6,1 L6,3 C6,3.55228475 5.55228475,4 5,4 C4.44771525,4 4,3.55228475 4,3 L4,1 C4,0.44771525 4.44771525,1.01453063e-16 5,0 Z M15,0 C15.5522847,-1.01453063e-16 16,0.44771525 16,1 L16,3 C16,3.55228475 15.5522847,4 15,4 C14.4477153,4 14,3.55228475 14,3 L14,1 C14,0.44771525 14.4477153,1.01453063e-16 15,0 Z" id="形状结合"></path>
                        </g>
                    </g>
                    <g id="location" transform="translate(10.000000, 12.000000)" fill="#E9001B">
                        <g id="编组">
                            <path d="M17,2 L19.5,2 C19.7761424,2 20,2.22385763 20,2.5 L20,19.5 C20,19.7761424 19.7761424,20 19.5,20 L0.5,20 C0.223857625,20 3.38176876e-17,19.7761424 0,19.5 L0,2.5 C-3.38176876e-17,2.22385763 0.223857625,2 0.5,2 L3,2 L3,3 C3,4.1045695 3.8954305,5 5,5 C6.1045695,5 7,4.1045695 7,3 L7,2 L13,2 L13,3 C13,4.1045695 13.8954305,5 15,5 C16.1045695,5 17,4.1045695 17,3 L17,2 Z M2.72222222,6.5 C2.44607985,6.5 2.22222222,6.72385763 2.22222222,7 L2.22222222,17.25 C2.22222222,17.5261424 2.44607985,17.75 2.72222222,17.75 L17.2777778,17.75 C17.5539202,17.75 17.7777778,17.5261424 17.7777778,17.25 L17.7777778,7 C17.7777778,6.72385763 17.5539202,6.5 17.2777778,6.5 L2.72222222,6.5 Z M5.5,9 L6.5,9 C6.77614237,9 7,9.22385763 7,9.5 L7,10.5 C7,10.7761424 6.77614237,11 6.5,11 L5.5,11 C5.22385763,11 5,10.7761424 5,10.5 L5,9.5 C5,9.22385763 5.22385763,9 5.5,9 Z M9.5,9 L10.5,9 C10.7761424,9 11,9.22385763 11,9.5 L11,10.5 C11,10.7761424 10.7761424,11 10.5,11 L9.5,11 C9.22385763,11 9,10.7761424 9,10.5 L9,9.5 C9,9.22385763 9.22385763,9 9.5,9 Z M13.5,9 L14.5,9 C14.7761424,9 15,9.22385763 15,9.5 L15,10.5 C15,10.7761424 14.7761424,11 14.5,11 L13.5,11 C13.2238576,11 13,10.7761424 13,10.5 L13,9.5 C13,9.22385763 13.2238576,9 13.5,9 Z M5.5,13 L6.5,13 C6.77614237,13 7,13.2238576 7,13.5 L7,14.5 C7,14.7761424 6.77614237,15 6.5,15 L5.5,15 C5.22385763,15 5,14.7761424 5,14.5 L5,13.5 C5,13.2238576 5.22385763,13 5.5,13 Z M9.5,13 L10.5,13 C10.7761424,13 11,13.2238576 11,13.5 L11,14.5 C11,14.7761424 10.7761424,15 10.5,15 L9.5,15 C9.22385763,15 9,14.7761424 9,14.5 L9,13.5 C9,13.2238576 9.22385763,13 9.5,13 Z M13.5,13 L14.5,13 C14.7761424,13 15,13.2238576 15,13.5 L15,14.5 C15,14.7761424 14.7761424,15 14.5,15 L13.5,15 C13.2238576,15 13,14.7761424 13,14.5 L13,13.5 C13,13.2238576 13.2238576,13 13.5,13 Z M5,0 C5.55228475,-1.01453063e-16 6,0.44771525 6,1 L6,3 C6,3.55228475 5.55228475,4 5,4 C4.44771525,4 4,3.55228475 4,3 L4,1 C4,0.44771525 4.44771525,1.01453063e-16 5,0 Z M15,0 C15.5522847,-1.01453063e-16 16,0.44771525 16,1 L16,3 C16,3.55228475 15.5522847,4 15,4 C14.4477153,4 14,3.55228475 14,3 L14,1 C14,0.44771525 14.4477153,1.01453063e-16 15,0 Z" id="形状结合"></path>
                        </g>
                    </g>
                </g>
            </g>
        </g>
    </g>
</svg>