<?xml version="1.0" encoding="UTF-8"?>
<svg width="20px" height="20px" viewBox="0 0 20 20" version="1.1" xmlns="http://www.w3.org/2000/svg" xmlns:xlink="http://www.w3.org/1999/xlink">
    <!-- Generator: Sketch 54.1 (76490) - https://sketchapp.com -->
    <title>link</title>
    <desc>Created with Sketch.</desc>
    <g id="Home" stroke="none" stroke-width="1" fill="none" fill-rule="evenodd">
        <g id="1.2.0_post" transform="translate(-160.000000, -1268.000000)">
            <rect fill="#FFFFFF" x="0" y="0" width="1440" height="2050"></rect>
            <path d="M171.627949,1282.16032 C171.827748,1281.96052 172.151684,1281.96052 172.351483,1282.16032 C172.551281,1282.36011 172.551281,1282.68405 172.351483,1282.88385 L168.733817,1286.50151 C166.735836,1288.4995 163.496468,1288.4995 161.498486,1286.50151 C159.500505,1284.50353 159.500505,1281.26416 161.498486,1279.26618 L165.116152,1275.64852 C165.31595,1275.44872 165.639887,1275.44872 165.839685,1275.64852 C166.039483,1275.84832 166.039483,1276.17225 165.839685,1276.37205 L162.222019,1279.98972 C160.623634,1281.5881 160.623634,1284.1796 162.222019,1285.77798 C163.820404,1287.37637 166.411899,1287.37637 168.010284,1285.77798 L171.627949,1282.16032 Z M174.160315,1279.62795 L177.777981,1276.01028 C179.376366,1274.4119 179.376366,1271.8204 177.777981,1270.22202 C176.179596,1268.62363 173.588101,1268.62363 171.989716,1270.22202 L168.372051,1273.83968 C168.172252,1274.03948 167.848316,1274.03948 167.648517,1273.83968 C167.448719,1273.63989 167.448719,1273.31595 167.648517,1273.11615 L171.266183,1269.49849 C173.264164,1267.5005 176.503532,1267.5005 178.501514,1269.49849 C180.499495,1271.49647 180.499495,1274.73584 178.501514,1276.73382 L174.883848,1280.35148 C174.68405,1280.55128 174.360113,1280.55128 174.160315,1280.35148 C173.960517,1280.15168 173.960517,1279.82775 174.160315,1279.62795 Z M166.563218,1280.71325 L173.075016,1274.20145 C173.274814,1274.00165 173.598751,1274.00165 173.798549,1274.20145 C173.998347,1274.40125 173.998347,1274.72519 173.798549,1274.92498 L167.286751,1281.43678 C167.086953,1281.63658 166.763016,1281.63658 166.563218,1281.43678 C166.36342,1281.23698 166.36342,1280.91305 166.563218,1280.71325 Z" id="link" fill="#E9001B" fill-rule="nonzero"></path>
        </g>
    </g>
</svg>