<?xml version="1.0" encoding="UTF-8"?>
<svg width="20px" height="20px" viewBox="0 0 20 20" version="1.1" xmlns="http://www.w3.org/2000/svg" xmlns:xlink="http://www.w3.org/1999/xlink">
    <!-- Generator: Sketch 54.1 (76490) - https://sketchapp.com -->
    <title>location</title>
    <desc>Created with Sketch.</desc>
    <g id="Events" stroke="none" stroke-width="1" fill="none" fill-rule="evenodd">
        <g id="2.0.0_events" transform="translate(-170.000000, -521.000000)">
            <rect fill="#FFFFFF" x="0" y="0" width="1440" height="1820"></rect>
            <g id="编组" transform="translate(160.000000, 509.000000)">
                <g id="filter">
                    <rect id="矩形" stroke="#E8E8E8" stroke-width="1" fill="#FFFFFF" fill-rule="evenodd" x="0.5" y="0.5" width="199" height="43" rx="2"></rect>
                    <text id="location" font-family="PingFangSC-Regular, PingFang SC" font-size="16" font-weight="normal" fill="#666666">
                        <tspan x="40" y="28">location</tspan>
                    </text>
                    <g id="filter_location" transform="translate(10.000000, 12.000000)" fill="#E9001B" fill-rule="evenodd" stroke-width="1">
                        <g id="location" transform="translate(2.000000, 0.000000)">
                            <path d="M8.35768504,19.7353224 L8,20 L7.64231496,19.7353224 C2.57374406,15.984712 0,12.1757048 0,8.28770824 C0,3.71053337 3.581722,0 8,0 C12.418278,0 16,3.71053337 16,8.28770824 C16,12.1757048 13.4262559,15.984712 8.35768504,19.7353224 Z M8,12 C10.209139,12 12,10.209139 12,8 C12,5.790861 10.209139,4 8,4 C5.790861,4 4,5.790861 4,8 C4,10.209139 5.790861,12 8,12 Z" id="Oval-5" fill-rule="nonzero"></path>
                        </g>
                    </g>
                    <path d="M184.5,22.7928932 L184.5,16.2928932 C184.5,16.0167508 184.723858,15.7928932 185,15.7928932 C185.276142,15.7928932 185.5,16.0167508 185.5,16.2928932 L185.5,23.2928932 C185.5,23.5690356 185.276142,23.7928932 185,23.7928932 L178,23.7928932 C177.723858,23.7928932 177.5,23.5690356 177.5,23.2928932 C177.5,23.0167508 177.723858,22.7928932 178,22.7928932 L184.5,22.7928932 Z" id="形状结合" fill="#E9001B" fill-rule="evenodd" transform="translate(181.500000, 19.792893) rotate(45.000000) translate(-181.500000, -19.792893) "></path>
                </g>
                <g id="filter">
                    <rect id="矩形" stroke="#E8E8E8" fill="#FFFFFF" x="0.5" y="0.5" width="199" height="43" rx="2"></rect>
                    <g id="filter_location" transform="translate(10.000000, 12.000000)" fill="#E9001B">
                        <g id="location" transform="translate(2.000000, 0.000000)">
                            <path d="M8.35768504,19.7353224 L8,20 L7.64231496,19.7353224 C2.57374406,15.984712 0,12.1757048 0,8.28770824 C0,3.71053337 3.581722,0 8,0 C12.418278,0 16,3.71053337 16,8.28770824 C16,12.1757048 13.4262559,15.984712 8.35768504,19.7353224 Z M8,12 C10.209139,12 12,10.209139 12,8 C12,5.790861 10.209139,4 8,4 C5.790861,4 4,5.790861 4,8 C4,10.209139 5.790861,12 8,12 Z" id="Oval-5" fill-rule="nonzero"></path>
                        </g>
                    </g>
                    <g id="location" transform="translate(10.000000, 12.000000)" fill="#E9001B" fill-rule="nonzero">
                        <g transform="translate(2.000000, 0.000000)" id="Oval-5">
                            <path d="M8.35768504,19.7353224 L8,20 L7.64231496,19.7353224 C2.57374406,15.984712 0,12.1757048 0,8.28770824 C0,3.71053337 3.581722,0 8,0 C12.418278,0 16,3.71053337 16,8.28770824 C16,12.1757048 13.4262559,15.984712 8.35768504,19.7353224 Z M8,12 C10.209139,12 12,10.209139 12,8 C12,5.790861 10.209139,4 8,4 C5.790861,4 4,5.790861 4,8 C4,10.209139 5.790861,12 8,12 Z"></path>
                        </g>
                    </g>
                </g>
            </g>
        </g>
    </g>
</svg>