<svg xmlns="http://www.w3.org/2000/svg" xmlns:xlink="http://www.w3.org/1999/xlink" width="426" height="108" viewBox="0 0 426 108">
    <defs>
        <path id="a" d="M0 .962h114.684V106H0z"/>
    </defs>
    <g fill="none" fill-rule="evenodd">
        <g transform="translate(0 .038)">
            <mask id="b" fill="#fff">
                <use xlink:href="#a"/>
            </mask>
            <path fill="#ffffff" d="M34.806 104.264c-7.227 0-13.736-1.848-19.354-5.486C9.13 94.668 3.93 88.272 0 79.738c16.163-8.276 29.233-13.062 47.361-13.062 3.84 0 7.926.225 12.16.666 1.02 1.578 1.984 3.09 2.93 4.55 7.972 12.49 13.337 20.893 22.383 28.854-5.437-1.262-10.263-1.861-15.089-1.861-8.88 0-16.958 2.03-28.138 4.829l-.275.068a45.915 45.915 0 0 1-6.526.482M105.863 106c14.761-20.861 8.29-37.487.158-47.816l-.197-.203C93.855 45.619 86.504 38.03 81.647 22.033c-2.38 11.809-6.967 20.65-13.797 33.82a830.955 830.955 0 0 0-2.478 4.793C76.352 85.29 90.213 95.912 105.863 106m-90.78-41.815C26.504 51.98 29.4 41.81 34.128 25.27l.075-.271C38.59 14.02 48.397.962 70.213.962c1.766 0 3.611.093 5.475.258-.91 18.61-3.178 35.917-19.03 57.75-1.865.093-3.665.175-5.394.255-14.808.664-24.76 1.11-36.18 4.96" mask="url(#b)"/>
        </g>
        <path fill="#ffffff" d="M186.725 26.298V29.9h10.354v11.614c-2.383.403-5.042.728-7.631.728-10.825 0-13.823-4.777-13.823-16.335 0-11.547 3.262-16.33 14.686-16.33 3.307 0 6.705.35 10.105 1.022 1.603.324 3.103-.88 3.103-2.513v-3.62a65.002 65.002 0 0 0-14.6-1.661c-16.47 0-21.928 6.773-21.928 23.102 0 16.335 5.259 23.109 21.395 23.109 5.173 0 10.096-.495 14.736-1.362 1.225-.236 2.125-1.29 2.125-2.542V23.72h-15.95a2.577 2.577 0 0 0-2.572 2.578M216.71 48.218h6.248a2.582 2.582 0 0 0 2.582-2.578V3.605h-8.83v44.613zM245.83 3.6H237V48.22h25.185a2.576 2.576 0 0 0 2.573-2.578v-4.19H245.83V3.6zM280.286 41.58V28.766h14.569a2.58 2.58 0 0 0 2.578-2.58v-3.93h-17.147V10.239h19.873a2.578 2.578 0 0 0 2.583-2.576V3.6h-31.286V48.22h28.703a2.582 2.582 0 0 0 2.583-2.58v-4.06h-22.456zM134.126 31.289l7.035-19.855 7.11 19.855h-14.144zm12.647-26.02a2.587 2.587 0 0 0-2.415-1.664h-6.398c-1.07 0-2.034.66-2.403 1.665l-16.17 42.948h7.076c1.088 0 2.06-.68 2.435-1.713l3.1-8.711h18.39l3.112 8.71a2.57 2.57 0 0 0 2.424 1.714h7.013L146.773 5.27zM294.804 86.776h-6.268c.623 1.863 4.101 10.82 14.078 16.175v-3.25c0-.732-.3-1.45-.85-1.938-4.584-4.08-6.146-8.653-6.96-10.987zm5.784-8.089v1.838a2.596 2.596 0 0 1-2.595 2.591H285.63v16.471h-.003c0 1.965-1.557 3.59-3.509 3.661h-6.758l-.412-4.024h5.14V83.116h-12.983a4.46 4.46 0 0 1-4.434-4.455v-14.95h2.994c22.847 0 31.112-1.734 32.151-2.128v2.567c0 1.254-.898 2.346-2.139 2.552-4.448.776-12.99 1.311-27.8 1.434v10.551h12.211v-8.412h5.542v8.412h14.958zM185.302 77.43h4.665v-6.324h-4.665v6.324zm0 10.703h4.665V81.81h-4.665v6.323zm0 10.706h4.665v-6.326h-4.665v6.326zm10.14-6.326v6.326h6.46v1.814c0 1.42-1.148 2.596-2.564 2.596h-15.116c-2.426-.004-4.39-2.004-4.39-4.43V72.638c-.192.36-.487.938-.834 1.515a2.612 2.612 0 0 1-2.662 1.24l-1.544-.298c.622-1.466 3.167-6.605 4.2-13.017h4.987a52.836 52.836 0 0 1-1.239 4.644h7.227v-5.06h2.908a2.565 2.565 0 0 1 2.567 2.562v2.498h6.46v1.814a2.564 2.564 0 0 1-2.564 2.565h-3.896v6.327h5.365v1.811a2.569 2.569 0 0 1-2.567 2.57h-2.798v6.322h5.365v1.813a2.57 2.57 0 0 1-2.567 2.567h-2.798zm-37.78 2.71c2.758-3.224 3.95-5.842 4.85-8.449h5.592c-1.609 5.147-6.948 12.36-11.093 13.823v-3.66c0-.63.238-1.232.65-1.714zm16.832-28.94a2.187 2.187 0 0 0 2.184-2.184V62.08h-17.01v1.634a2.566 2.566 0 0 0 2.563 2.57h6.784v12.455h-4.69c.465-1.846 1.234-4.72 1.301-9.483h-4.379c0 3.66-1.13 8.421-1.58 9.913v1.38c0 1.621 1.147 2.565 2.564 2.565h6.784v16.16h-5.08l.413 3.975h6.68c1.921-.072 3.461-1.676 3.461-3.617V83.113h.005a2.182 2.182 0 0 0 2.184-2.184v-2.19h-2.189V66.281h.005zM247.402 71H219.25v-4.54h28.153V71zm-1.107 27.838H225.99V93.08h20.305v5.758zM219.25 75.376h14.645v4.291H219.25v-4.29zm-5.195-13.297V82.73c0 9.698-2.414 18.667-2.926 20.518h2.495c1.118 0 2.104-.743 2.465-1.803 1.197-3.603 2.922-9.95 3.136-17.395h14.67v4.656h-13.378v14.542h26.866a4.4 4.4 0 0 0 4.393-4.349V88.706h-12.413V84.05h9.842a2.565 2.565 0 0 0 2.571-2.564v-1.819h-12.413v-4.29h8.02a4.398 4.398 0 0 0 4.393-4.343V62.08h-37.72zm55.521 24.697c-.814 2.334-2.375 6.906-6.965 10.987-.547.487-.842 1.206-.842 1.938v3.25c9.976-5.355 13.447-14.312 14.075-16.175h-6.268z"/>
        <path fill="#ffffff" d="M380.614 38.447c-3.361 3.692-7.926 5.567-13.463 5.567-7.05-.373-10.805-3.628-11.175-9.69-.1-3.778 1.63-6.97 5.16-9.537 1.389-1.009 3.367-.293 4.27 1.356-3.5 2.203-5.314 4.705-5.418 7.442.245 4.502 2.778 6.91 7.532 7.148 4.273 0 7.805-1.669 10.494-4.97-4.803-4.196-9.363-8.822-13.55-13.64-2.11-2.429-3.32-4.83-3.61-7.093-.818-6.427 4.019-9.442 8.775-9.3 4.837.14 9.116 3.592 8.32 9.813-.28 2.196-2.394 4.691-4.2 6.272-1.531 1.326-4.406-1.07-4.117-1.239.858-.499 1.745-1.149 2.475-1.89 3.33-3.377 2.873-9.41-2.478-9.58-2.797-.089-5.712 1.91-4.995 6.248.817 4.901 11.429 14.047 15.328 17.443 1.299-2.696 1.575-3.899 2.156-6.573.433-1.966 2.033-2.486 4.105-2.145-.561 4.747-1.755 8.496-3.475 11.203 1.945 1.631 4.495 3.621 7.576 5.838-1.411 1.452-3.77 1.65-5.195.605l-4.515-3.278zM338.685 3.485h-11.422v44.85h1.76a2 2 0 0 0 1.996-2.008V7.244h7.468c8.068 0 11.08 2.112 11.08 9.143 0 7.081-4.578 8.677-12.64 8.677h-.068a1.99 1.99 0 0 0-1.994 1.992V28.8h2.253c10.538 0 16.211-3.094 16.211-12.413 0-8.909-4.112-12.902-14.644-12.902M332.252 73.23v-5.36h27.14l-.012 2.645c.075.91-.11 1.605-.548 2.073-.397.432-1.005.657-1.788.657-.123 0-.24-.01-.334-.014h-24.457zm-7.599 26.84c-.43.585-.75 1.113-.75 1.663v2.29c5.857-3.07 8.582-7.577 8.35-13.76V76.136h26.536l.344.002c1.723 0 3.012-.436 3.83-1.28.851-.877 1.26-2.26 1.207-4.122v-5.762H348.96c0-1.656-1.387-3.01-3.009-3.01h-3.087v3.01h-15.58V91.56c.103 3.203-1.064 6.37-2.632 8.51zm48.131-31.284c-.555.346-.938.965-.938 1.622v1.109c3.493-.875 6.075-2.42 7.678-4.596l.132-.174h2.743l.11.25c.333.74.6 1.503.8 2.279.513 2.039 2.334 1.785 4.153 1.785-.163-1.097-.513-2.353-1.044-3.735l-.223-.58h3.77c1.338 0 2.433-1.17 2.433-2.531h-11.285l.238-.582a8.827 8.827 0 0 0 .459-1.671H377.4c-.613 2.998-2.166 5.289-4.617 6.824zm9.291 18.525h18.632c.075.006.192.013.3.013.66 0 1.16-.193 1.505-.567.397-.438.567-1.1.493-1.974v-2.084h-20.93v4.612zm0 13.323h19.75c.11.01.24.014.358.014h.002c.745 0 1.31-.201 1.68-.603.37-.405.524-.997.452-1.75v-2.263h-22.242v4.602zm10.608-29.948v-1.382c2.754-1.52 4.437-3.987 5.009-7.342h4.349l-.565 2.253h12.319c0 1.645-.629 2.532-2.286 2.532h-4.433l.164.549c.328 1.097.661 2.29.988 3.58-1.743 0-3.796.024-4.26-1.98a10.75 10.75 0 0 0-.622-1.897l-.111-.252h-3.16l-.121.223c-.7 1.286-2.156 2.496-4.32 3.574l-.235.117v.025h-2.716zm15.014 9.008v-3.188h-30.132l.01.944c.005 1.177-.972 2.244-2.286 2.244h-2.69v-5.902h17.087V71.35h2.37c1.533 0 3.344.639 3.344 2.442h17.454l-.003 3.579c0 1.33-.911 2.323-2.76 2.323h-2.394zm-3.598 23.66l-27.183-.005-.014-22.991 30.884.003v4.27c.058 1.79-.315 3.114-1.1 3.926-.698.728-1.781 1.098-3.204 1.098l-.323-.007h-21.084v3.85h27.21v4.649c.067 1.795-.328 3.124-1.15 3.973-.791.82-2.032 1.236-3.69 1.236l-.346-.001zm-69.073-3.061c5.248-3.756 4.65-9.866 4.65-15.528h-5.445v-2.902h12.947V78.3h2.358c2.628 0 2.993 2.315 2.993 3.562h13.7c0 1.927-.123 2.902-2.28 2.902h-19.302c0 1.414-.097 2.855-.192 4.233h17.834v9.335c0 3.379-1.7 5.022-5.204 5.022h-5.478l-.668-2.721h3.704c2.526 0 3.05-1.454 3.05-2.678v-6.054h-13.371l-.053.377c-.584 5.037-4.087 9.057-10.41 11.963v-1.67c0-.997-.075-1.376 1.167-2.28zM396.584 12.977l.064 34.56a1.998 1.998 0 0 1-1.998 2h-1.745V4.884h2.187c.298.017.944.143 1.492.881l.003.001 12.597 24.874 12.333-24.867.01-.004c.534-.736 1.192-.86 1.487-.882h2.183v44.61h-1.75a1.998 1.998 0 0 1-1.995-1.997c0-11.524.065-22.98.075-34.514L411.27 34.275c-1.17 1.892-3.07 1.882-4.178 0l-10.508-21.298z"/>
    </g>
</svg>
