<?xml version="1.0" encoding="UTF-8"?>
<svg width="20px" height="20px" viewBox="0 0 20 20" version="1.1" xmlns="http://www.w3.org/2000/svg" xmlns:xlink="http://www.w3.org/1999/xlink">
    <!-- Generator: Sketch 54.1 (76490) - https://sketchapp.com -->
    <title>tips_close</title>
    <desc>Created with Sketch.</desc>
    <g id="Home" stroke="none" stroke-width="1" fill="none" fill-rule="evenodd">
        <g id="1.0.0_home" transform="translate(-866.000000, -34.000000)" fill="#B4B4B5">
            <g id="tips" transform="translate(540.000000, 20.000000)">
                <g id="tips_close" transform="translate(326.000000, 14.000000)">
                    <path d="M10,8.51288693 L15.2048957,3.3079912 C15.6155507,2.89733627 16.2813539,2.89733627 16.6920088,3.3079912 C17.1026637,3.71864613 17.1026637,4.38444933 16.6920088,4.79510427 L11.4871131,10 L16.6920088,15.2048957 C17.1026637,15.6155507 17.1026637,16.2813539 16.6920088,16.6920088 C16.2813539,17.1026637 15.6155507,17.1026637 15.2048957,16.6920088 L10,11.4871131 L4.79510427,16.6920088 C4.38444933,17.1026637 3.71864613,17.1026637 3.3079912,16.6920088 C2.89733627,16.2813539 2.89733627,15.6155507 3.3079912,15.2048957 L8.51288693,10 L3.3079912,4.79510427 C2.89733627,4.38444933 2.89733627,3.71864613 3.3079912,3.3079912 C3.71864613,2.89733627 4.38444933,2.89733627 4.79510427,3.3079912 L10,8.51288693 L10,8.51288693 Z"></path>
                </g>
            </g>
        </g>
    </g>
</svg>